name processed_emg_signals										
nRows=74										
nColumns=7										
 										
endheader										
time	RGLTMED	RRF	RADDLONG	RST	RTA	RGM				
0	0.03333898	0.010968597	0.009428599	0.004173044	0.017882887	0.008746839				
0.001	0.034790743	0.010026222	0.009862124	0.004500222	0.024349867	0.009693265				
0.002	0.036237106	0.009088983	0.010296393	0.004820638	0.030848048	0.010637083				
0.003	0.037676877	0.008157425	0.010731091	0.005133951	0.037373685	0.011577704				
0.004	0.039108866	0.007232087	0.011165899	0.005439827	0.043922977	0.012514545				
0.005	0.04053188	0.006313498	0.011600498	0.005737942	0.05049207	0.013447025				
0.006	0.041944732	0.005402178	0.012034566	0.006027977	0.057077061	0.01437457				
0.007	0.043346239	0.004498638	0.012467779	0.006309624	0.063674	0.01529661				
0.008	0.044735226	0.003603378	0.012899813	0.006582585	0.070278897	0.016212583				
0.009	0.046110524	0.002716889	0.013330345	0.006846572	0.076887724	0.017121935				
0.01	0.047470978	0.001839646	0.01375905	0.00710131	0.083496419	0.018024117				
0.011	0.048815442	0.000972115	0.014185605	0.007346534	0.09010089	0.018918593				
0.012	0.050142786	0.000114749	0.014609686	0.007581993	0.09669702	0.019804835				
0.013	0.051451897	0.000732015	0.015030973	0.007807447	0.103280672	0.020682323				
0.014	0.052741677	0.001567751	0.015449148	0.008022674	0.10984769	0.021550552				
0.015	0.054011051	0.00239205	0.015863892	0.008227463	0.116393908	0.022409027				
0.016	0.055258962	0.003204517	0.016274892	0.00842162	0.122915148	0.023257264				
0.017	0.056484379	0.004004772	0.016681838	0.008604966	0.12940723	0.024094793				
0.018	0.057686293	0.004792452	0.017084424	0.008777341	0.135865975	0.024921158				
0.019	0.058863725	0.005567209	0.017482346	0.0089386	0.142287207	0.025735916				
0.02	0.06001572	0.006328712	0.017875307	0.009088614	0.148666761	0.02653864				
0.021	0.061141355	0.007076648	0.018263014	0.009227276	0.155000483	0.027328914				
0.022	0.062239739	0.007810719	0.018645181	0.009354496	0.161284239	0.028106341				
0.023	0.06331001	0.008530647	0.019021525	0.009470204	0.167513918	0.028870539				
0.024	0.064351343	0.00923617	0.019391772	0.009574348	0.173685433	0.029621139				
0.025	0.065362948	0.009927044	0.019755655	0.009666899	0.179794731	0.030357792				
0.026	0.066344069	0.010603043	0.020112911	0.009747847	0.185837794	0.031080162				
0.027	0.067293991	0.011263959	0.020463288	0.009817205	0.191810644	0.031787933				
0.028	0.068212035	0.011909603	0.020806541	0.009875005	0.197709348	0.032480801				
0.029	0.069097563	0.012539804	0.021142431	0.009921305	0.203530021	0.033158483				
0.03	0.069949978	0.013154409	0.02147073	0.009956182	0.209268834	0.033820712				
0.031	0.070768724	0.013753283	0.021791218	0.009979739	0.214922014	0.034467235				
0.032	0.071553288	0.01433631	0.022103686	0.009992098	0.220485851	0.03509782				
0.033	0.0723032	0.014903392	0.02240793	0.00999341	0.225956701	0.035712249				
0.034	0.073018032	0.015454448	0.022703761	0.009983846	0.231330992	0.036310321				
0.035	0.073697402	0.015989418	0.022990998	0.009963601	0.236605226	0.036891855				
0.036	0.074340972	0.016508256	0.023269468	0.009932898	0.241775984	0.037456682				
0.037	0.074948449	0.017010937	0.023539012	0.009891981	0.246839932	0.038004652				
0.038	0.075519586	0.017497451	0.023799481	0.00984112	0.251793821	0.038535631				
0.039	0.07605418	0.017967807	0.024050736	0.00978061	0.256634497	0.039049502				
0.04	0.076552073	0.01842203	0.02429265	0.009710772	0.261358897	0.039546162				
0.041	0.077013155	0.018860162	0.024525106	0.00963195	0.265964059	0.040025526				
0.042	0.077437359	0.019282261	0.024748001	0.009544514	0.270447124	0.040487523				
0.043	0.077824665	0.019688402	0.024961242	0.009448861	0.274805337	0.040932098				
0.044	0.078175095	0.020078676	0.025164748	0.009345412	0.279036053	0.041359211				
0.045	0.078488719	0.020453187	0.02535845	0.009234612	0.28313674	0.041768836				
0.046	0.078765648	0.020812057	0.025542291	0.009116934	0.287104982	0.042160963				
0.047	0.079006039	0.021155421	0.025716227	0.008992875	0.290938478	0.042535594				
0.048	0.07921009	0.021483429	0.025880223	0.008862954	0.29463505	0.042892748				
0.049	0.079378043	0.021796243	0.02603426	0.00872772	0.298192645	0.043232453				
0.05	0.079510181	0.022094041	0.026178329	0.008587744	0.30160933	0.043554755				
0.051	0.079606827	0.022377012	0.026312434	0.008443621	0.304883306	0.04385971				
0.052	0.079668344	0.022645358	0.026436589	0.008295971	0.308012896	0.044147388				
0.053	0.079695135	0.022899292	0.026550824	0.008145438	0.31099656	0.04441787				
0.054	0.079687638	0.02313904	0.026655177	0.007992689	0.313832885	0.04467125				
0.055	0.079646332	0.023364839	0.0267497	0.007838416	0.316520593	0.044907633				
0.056	0.079571727	0.023576934	0.026834458	0.007683331	0.319058541	0.045127135				
0.057	0.079464372	0.023775582	0.026909524	0.00752817	0.321445718	0.045329883				
0.058	0.079324845	0.023961049	0.026974987	0.007373692	0.32368125	0.045516015				
0.059	0.079153759	0.02413361	0.027030946	0.007220675	0.325764397	0.045685679				
0.06	0.078951756	0.024293547	0.027077509	0.00706992	0.327694554	0.045839034				
0.061	0.078719508	0.024441152	0.027114799	0.006922247	0.329471252	0.045976245				
0.062	0.078457715	0.024576722	0.027142948	0.006778496	0.331094156	0.046097491				
0.063	0.078167103	0.024700562	0.0271621	0.006639527	0.332563065	0.046202956				
0.064	0.077848423	0.024812982	0.027172409	0.006506218	0.333877911	0.046292835				
0.065	0.077502452	0.024914299	0.02717404	0.006379462	0.335038758	0.046367331				
0.066	0.077129986	0.025004834	0.027167168	0.006260174	0.336045803	0.046426653				
0.067	0.076731843	0.025084914	0.02715198	0.006149281	0.33689937	0.046471021				
0.068	0.076308862	0.025154868	0.02712867	0.006047726	0.337599914	0.04650066				
0.069	0.075861896	0.025215029	0.027097444	0.005956467	0.338148013	0.046515803				
0.07	0.075391819	0.025265733	0.027058518	0.005876476	0.338544372	0.046516691				
0.071	0.074899515	0.025307319	0.027012114	0.005808737	0.338789819	0.046503569				
0.072	0.074385884	0.025340128	0.026958468	0.005754246	0.3388853	0.046476691				
0.073	0.073851837	0.0253645	0.02689782	0.005714007	0.338831881	0.046436315				
